<?xml version="1.0" standalone="no"?><!DOCTYPE svg PUBLIC "-//W3C//DTD SVG 1.1//EN" "http://www.w3.org/Graphics/SVG/1.1/DTD/svg11.dtd"><svg t="1710770862542" class="icon" viewBox="0 0 1024 1024" version="1.1" xmlns="http://www.w3.org/2000/svg" p-id="2543" xmlns:xlink="http://www.w3.org/1999/xlink" width="200" height="200"><path d="M511.778133 79.223467c194.56-2.6112 362.376533 114.090667 426.325334 293.546666 45.141333 126.72 37.922133 251.665067-24.490667 371.012267-63.419733 121.326933-162.901333 199.338667-297.216 228.829867-107.707733 23.6544-210.824533 7.168-305.800533-49.134934C191.6416 852.974933 118.510933 748.049067 95.573333 612.215467c-27.8016-164.283733 19.626667-306.2784 141.943467-420.676267 66.6112-62.344533 146.926933-97.826133 237.585067-109.329067 14.557867-1.8432 29.2864-2.4064 36.676266-2.986666z" fill="#0047B9" p-id="2544"></path><path d="M508.484267 972.3392a370.005333 370.005333 0 0 1-89.4976-13.653333 422.621867 422.621867 0 0 1-179.746134-99.7888C183.671467 807.253333 144.2304 745.096533 120.1664 673.109333c-7.867733-23.517867-13.021867-47.598933-17.493333-71.953066-6.075733-33.006933-6.434133-66.286933-4.949334-99.396267a412.074667 412.074667 0 0 1 18.5856-103.287467 441.2416 441.2416 0 0 1 30.327467-74.769066c15.240533-29.166933 32.904533-56.866133 54.698667-81.7152 7.850667-8.96 15.530667-18.1248 23.893333-26.658134a415.402667 415.402667 0 0 1 61.627733-51.575466A420.693333 420.693333 0 0 1 397.653333 109.226667a383.658667 383.658667 0 0 1 83.8144-17.408c14.301867-1.262933 28.5696-2.833067 42.939734-2.7648 53.162667 0.290133 104.772267 8.840533 154.248533 28.808533a9.9328 9.9328 0 0 0 2.1504 0.3584c3.037867 2.218667 1.706667 3.771733-0.785067 5.12-3.5328 0.477867-6.638933-1.006933-9.762133-2.2016a387.054933 387.054933 0 0 0-104.7552-23.893333C493.226667 90.641067 423.68 101.666133 357.307733 131.413333a417.757867 417.757867 0 0 0-123.1872 84.8384A435.6608 435.6608 0 0 0 106.3936 478.208a449.792 449.792 0 0 0 19.2512 192 427.0592 427.0592 0 0 0 82.688 147.285333c36.7104 42.666667 79.7696 77.6704 129.979733 103.287467a413.559467 413.559467 0 0 0 137.5744 42.3424c13.4144 1.706667 26.845867 2.389333 40.2944 3.242667a69.546667 69.546667 0 0 0 22.016 0 478.600533 478.600533 0 0 0 59.579734-6.178134 417.143467 417.143467 0 0 0 169.3184-70.980266 404.8896 404.8896 0 0 0 56.32-47.530667 442.026667 442.026667 0 0 0 100.949333-161.1264c13.653333-38.4 21.333333-78.011733 25.0368-118.4768 0.546133-6.007467-0.4096-12.066133 0.836267-18.039467a104.106667 104.106667 0 0 0-0.273067-27.938133c-1.297067-22.3744-3.157333-44.680533-7.406933-66.730667a485.12 485.12 0 0 0-12.424534-50.4832c-0.9728-3.2256-2.304-6.365867-2.133333-9.8304 0.256-2.286933 0.9728-4.266667 3.413333-5.12a362.103467 362.103467 0 0 1 15.6672 56.1152c5.0176 24.098133 7.168 48.622933 9.0112 73.1648a310.613333 310.613333 0 0 1 0 34.747734c-2.730667 44.7488-9.898667 88.746667-24.849066 131.106133a455.509333 455.509333 0 0 1-66.133334 123.7504 411.306667 411.306667 0 0 1-39.082666 44.663467c-29.149867 28.757333-61.303467 53.725867-97.467734 73.301333a416.546133 416.546133 0 0 1-183.808 51.575467 360.686933 360.686933 0 0 1-36.266666-0.017067z" fill="#D1DEF2" p-id="2545"></path><path d="M680.704 122.606933a2.986667 2.986667 0 0 0 0-4.4544 389.0176 389.0176 0 0 1 89.070933 47.786667 435.626667 435.626667 0 0 1 125.252267 136.772267c11.946667 20.48 22.971733 41.506133 30.344533 64.221866a3.1744 3.1744 0 0 1-3.413333 2.0992c-5.495467-4.625067-6.331733-11.707733-9.028267-17.7152a444.330667 444.330667 0 0 0-83.370666-124.8768 432.622933 432.622933 0 0 0-117.521067-87.552c-8.106667-4.164267-16.366933-8.157867-24.8832-11.554133-2.423467-0.904533-5.819733-1.041067-6.4512-4.727467z" fill="#A3BCE5" p-id="2546"></path><path d="M922.129067 368.503467l3.259733-1.501867c2.065067 5.597867 5.307733 10.8032 5.956267 16.913067l-1.8432 5.12c-6.0928-5.546667-7.509333-12.765867-7.3728-20.5312z" fill="#BECFED" p-id="2547"></path><path d="M508.484267 972.3392h36.1984a113.4592 113.4592 0 0 1-36.1984 0zM956.040533 547.9424V513.194667a103.2704 103.2704 0 0 1 0 34.747733zM922.129067 368.503467l7.3728 20.48c5.0176 17.7152 10.3424 35.345067 13.653333 53.469866a427.4688 427.4688 0 0 1 6.912 49.288534c0.546133 8.0896 1.3312 16.162133 1.450667 24.285866a175.616 175.616 0 0 1 0 29.013334C945.493333 769.058133 769.536 960.733867 538.845867 967.9872a146.773333 146.773333 0 0 1-23.074134 0c-82.858667-2.5088-158.72-26.948267-226.423466-74.6496-98.218667-69.239467-157.696-163.84-180.411734-281.7024a449.5872 449.5872 0 0 1 32.238934-265.796267 425.198933 425.198933 0 0 1 55.637333-91.5456 444.552533 444.552533 0 0 1 73.386667-72.567466 408.507733 408.507733 0 0 1 151.569066-75.093334c25.2928-6.536533 50.961067-11.1616 77.2096-11.946666 5.956267-0.170667 11.946667-1.2288 17.92-1.314134 55.517867-0.853333 109.226667 8.157867 161.058134 28.501334a18.619733 18.619733 0 0 0 2.7648 0.648533c28.142933 12.117333 55.3984 25.890133 80.6912 43.349333q107.0592 73.8816 157.013333 194.013867c1.092267 2.9696 2.440533 5.7856 3.703467 8.618667z" fill="#2863C4" p-id="2548"></path><path d="M951.6032 545.092267v-29.013334a73.386667 73.386667 0 0 1 0 29.013334z" fill="#97B4E2" p-id="2549"></path><path d="M515.771733 968.021333h23.074134a52.1216 52.1216 0 0 1-23.074134 0z" fill="#BECFED" p-id="2550"></path><path d="M146.551467 363.895467c-2.986667-2.5088-0.119467-4.7104 0.7168-6.621867a418.304 418.304 0 0 1 78.2848-120.695467c62.1568-66.884267 137.796267-110.574933 227.822933-126.429866 120.6784-21.248 230.519467 6.0416 326.7584 82.0224 86.510933 68.266667 139.144533 158.293333 155.972267 266.9568 21.742933 140.322133-14.7456 264.8064-111.872 369.527466-65.058133 70.126933-145.783467 113.066667-240.64 125.303467C443.733333 971.9808 324.266667 928.426667 227.2256 826.282667c-64.853333-68.369067-101.5808-150.749867-112.64-244.360534a431.9744 431.9744 0 0 1 25.6-207.377066c0.853333-2.184533 0-6.468267 4.7616-5.7856a19.592533 19.592533 0 0 0 7.133867 3.089066c9.9328 1.706667 17.834667 5.870933 19.3536 17.2544 0.477867 3.601067 2.577067 6.724267 3.84 10.120534 2.833067 7.662933 1.706667 9.540267-6.331734 10.120533a8.1408 8.1408 0 0 0-4.215466 0.631467c3.515733 4.352 14.1824 6.741333 18.397866 3.976533 3.413333-2.184533 4.113067-5.12 0.375467-7.3728-4.386133-2.56-5.410133-6.365867-5.973333-10.820267-0.512-3.976533-0.4096-7.441067 4.573866-8.072533 3.976533-0.494933 9.284267 3.413333 9.7792 6.912 0.221867 1.706667-0.836267 3.293867 0 6.144 5.12-9.898667 11.844267-4.983467 18.295467-3.054933a123.5456 123.5456 0 0 1 12.270933 4.232533c-7.611733-1.4336-11.656533-9.796267-18.432-14.472533-8.0384-5.546667-8.413867-13.9264-9.847466-22.391467-2.594133 1.706667-2.525867 5.444267-5.632 4.829867s-4.7104-3.413333-5.4272-6.212267c-1.2288-4.9152-2.679467-9.762133-3.754667-14.6944-0.3584-1.706667-0.631467-3.720533-2.56-3.9936-2.269867-0.3072-3.293867 1.706667-4.096 3.413333-1.536 3.328-1.314133 7.082667-2.423467 10.530134-1.006933 3.072-2.56 5.7856-6.126933 3.908266a10.496 10.496 0 0 0-12.100267 0.597334 6.5024 6.5024 0 0 1-5.495466 0.4608z" fill="#FEFEFE" p-id="2551"></path><path d="M146.551467 363.895467c2.423467-2.133333 6.144-1.4848 8.3968-4.625067 1.860267-2.594133 5.000533-0.9216 7.048533 0.768 5.12 4.266667 6.587733 1.9456 7.253333-3.413333 0.512-3.976533 0.392533-8.2944 3.413334-11.52 1.450667-1.553067 2.816-3.976533 5.12-3.413334 2.6112 0.580267 3.413333 3.259733 3.566933 5.700267 0.426667 6.007467 2.372267 11.656533 3.959467 17.390933 0.6144 2.2016 1.536 4.027733 3.908266 4.6592 3.1744-2.372267 0.426667-7.168 5.5296-10.717866 0.631467 22.101333 14.472533 33.979733 30.993067 44.219733-4.027733 1.058133-7.68-0.938667-11.349333-1.706667-3.959467-0.904533-7.697067-2.696533-11.5712-3.9424-2.952533-0.955733-6.826667-4.625067-6.826667 2.816 0 2.474667-3.106133 3.6352-5.666133 2.901334-3.2768-0.955733-1.928533-2.884267-0.750934-4.898134s2.423467-4.7616 0.2048-5.751466c-2.9184-1.314133-5.5296-4.266667-9.216-3.2768-0.7168 0.187733-1.706667 1.536-1.706666 2.030933 1.4336 4.7616-1.314133 11.246933 5.614933 13.806933 2.696533 1.006933 4.608 2.645333 3.618133 5.9904-0.836267 2.798933-1.501867 5.495467-5.256533 5.905067a43.144533 43.144533 0 0 1-18.432-2.304c-2.423467-0.802133-4.864-3.413333-4.078933-6.024533s3.771733-0.8704 5.717333-0.768c10.3936 0.597333 10.939733-0.136533 6.980267-9.984-1.2288-3.089067-2.4064-6.212267-3.413334-9.3696-3.549867-10.461867-8.533333-14.062933-20.3776-14.165334-3.959467 0-3.805867-2.798933-4.181333-5.358933z" fill="#0047B9" p-id="2552"></path><path d="M841.0624 535.0912c-6.946133 137.130667-66.901333 241.0496-194.235733 299.3664-80.913067 37.0688-164.6592 36.778667-246.152534 0.7168-107.52-47.598933-171.076267-131.754667-190.6176-246.971733-27.4432-161.928533 66.833067-315.426133 215.773867-364.526934 152.661333-50.3296 318.3616 24.285867 385.092267 172.885334a339.626667 339.626667 0 0 1 30.139733 138.530133zM237.533867 787.421867c0.8192-4.317867 5.12-6.826667 2.491733-11.042134-5.256533 2.030933-8.789333 6.434133-12.782933 10.069334-3.1744 2.884267 0 5.393067 2.116266 7.082666 4.693333 3.908267 9.9328 2.082133 15.36-0.2048-0.392533 1.3312-0.375467 1.8944-0.648533 2.0992-11.008 8.226133-11.025067 8.2432-19.5584-2.218666-3.498667-4.266667-6.826667-8.533333-10.24-13.568 3.9936 1.8432 6.3488 0.494933 9.216-2.235734 7.492267-7.1168 15.633067-13.568 23.483733-20.3264 1.979733-1.706667 4.7616-3.515733 2.235734-6.4512s-4.386133 0.2048-6.126934 1.3824c-11.127467 7.492267-22.186667 15.138133-34.2528 22.033067l17.698134-38.7584c-9.130667 7.0656-22.340267 9.198933-26.88 22.272-8.533333-14.199467-18.0736-28.586667-24.456534-45.789867 8.533333 4.2496 13.892267-2.491733 20.48-4.7104 2.116267-0.7168 1.4336-2.184533 0.7168-3.413333-1.399467-2.4064-1.297067-6.144-4.386133-6.980267-4.317867-1.160533-16.093867 8.260267-16.725333 13.380267-4.078933-5.256533-5.307733-11.400533-8.96-17.732267 3.720533 0.9216 5.563733 3.5328 8.823466 1.877334 10.461867-5.358933 21.1968-10.24 31.812267-15.240534a2.525867 2.525867 0 0 0 1.706667-3.140266c-4.215467-0.392533-7.748267 2.935467-12.4416 2.901333 0.733867-2.747733 3.310933-3.413333 4.846933-4.846933a10.478933 10.478933 0 0 0 3.208533-11.178667 8.8064 8.8064 0 0 0-8.533333-5.666133 40.328533 40.328533 0 0 0-28.586667 9.949866c-4.7616 4.1984-3.959467 10.496 1.262934 14.2336a55.790933 55.790933 0 0 0 7.3728 3.720534c-6.178133 2.9184-9.9328-0.4608-13.038934-4.4032-4.7616-6.058667-4.2496-15.36 0.682667-21.504 7.458133-9.181867 22.3232-13.5168 33.4336-9.6768a20.753067 20.753067 0 0 1 10.769067 8.96c3.1744 4.795733-1.467733 10.325333 3.515733 15.547733 3.1232 3.242667 5.12 9.813333 6.212267 15.633067-4.317867-2.2016-16.4864 0.341333-19.5584 3.9424-2.218667 2.577067 0.648533 4.369067 1.314133 6.417066 0.512 1.570133 0.733867 4.744533 3.2256 3.805867a106.871467 106.871467 0 0 0 14.1824-6.946133c1.9968-1.1264-0.3072-3.413333 0.733867-6.212267 4.778667 8.8064 8.3456 17.425067 13.653333 24.712533 8.260267 11.246933 8.533333 21.691733 0.682667 32.9728a19.029333 19.029333 0 0 0-4.027734 11.434667c6.826667-6.9632 17.169067-7.901867 18.568534-20.1216a158.907733 158.907733 0 0 0 21.0432 29.354667c1.450667 1.706667 1.3824 2.679467-0.4096 4.061866-3.037867 2.3552-5.8368 5.0176-9.386667 7.389867 2.696533-5.341867 5.973333-10.24 0.955733-16.0768-2.082133-2.4064-2.935467-2.321067-4.898133-0.494933-2.474667 2.304-5.12 4.369067-7.645867 6.621866-0.955733 0.887467-2.816 1.621333-1.877333 3.413334s2.833067 1.706667 4.471467 0.955733a46.916267 46.916267 0 0 1 6.468266-2.594133 85.777067 85.777067 0 0 1-17.322666 15.3088z" fill="#0047B9" p-id="2553"></path><path d="M495.0528 914.978133c3.7888-9.7792 6.826667-17.7152 9.915733-25.6 0.750933-1.979733 1.024-4.642133 4.0448-4.061866 7.8336 1.501867 15.701333-1.3824 23.0912 0.238933-4.078933 9.3184 4.522667 15.36 6.007467 23.278933 1.860267-7.611733 9.557333-14.011733 5.341867-23.296H552.96c-5.922133 7.031467-7.748267 15.991467-11.2128 24.183467-3.601067 8.533333-1.877333 20.206933 3.413333 24.405333H525.653333c9.1136-4.744533 6.178133-12.4416 4.744534-18.363733-2.013867-8.2944-6.1952-16.059733-9.591467-24.0128-0.494933-1.1776-0.9728-3.1232-2.798933-2.781867s-2.184533 2.2016-2.338134 3.9424c-0.938667 11.025067-1.9968 22.050133-2.833066 33.092267-0.256 3.413333-1.28 7.424 3.618133 9.284267l-17.476267-1.314134c4.693333-2.133333 4.9152-5.956267 5.12-10.069333 0.5632-9.3696 1.467733-18.773333 1.706667-28.347733-4.898133 12.407467-9.7792 24.832-15.4624 39.253333-3.1744-14.3872-5.853867-26.624-8.533333-38.877867-0.273067 12.032-7.543467 24.132267 0 36.864l-13.653334-1.553066c6.7072-2.218667 6.826667-5.922133 7.082667-9.949867 0.4608-8.891733 1.3312-17.749333 2.030933-26.624a54.749867 54.749867 0 0 0 0.341334-5.768533c0-1.706667-0.682667-3.413333-2.816-3.413334s-1.962667 1.792-2.2528 3.157334c-0.5632 2.7136 0 5.7856-2.8672 8.226133-0.392533-6.417067-0.529067-12.612267-8.977067-13.4144-2.2016-0.221867-3.1232 0-3.413333 1.962667-0.648533 5.12-2.816 10.103467-2.184534 15.684266 5.853867-0.699733 5.239467-6.331733 8.635734-10.666666a99.6352 99.6352 0 0 1-4.027734 22.9376c-3.1744-2.338133-0.699733-7.185067-5.4784-7.936-2.645333 4.676267-2.372267 10.24-3.413333 15.36-0.648533 2.9696 1.706667 3.413333 3.9936 3.925333 7.458133 1.706667 10.837333-3.328 14.250667-9.966933 0.802133 5.819733-1.706667 9.540267-2.594134 13.653333-0.733867 3.413333-3.498667 1.706667-5.3248 1.3824-7.560533-1.3312-15.069867-2.884267-23.057066-4.437333 7.0656-6.656 6.263467-15.9744 7.355733-24.2688 1.024-7.7312 7.799467-16.093867-1.1264-24.695467 10.3424 2.184533 19.694933 4.164267 29.013333 6.178133 1.160533 0.238933 2.3552 1.1776 3.413334 0.9728 10.564267-1.9968 12.765867 4.7616 14.097066 12.936534 0.938667 5.410133 2.474667 10.888533 4.215467 18.500266z" fill="#0147B9" p-id="2554"></path><path d="M305.783467 181.640533c9.0624-7.816533 17.732267-6.178133 25.719466 4.590934 8.7552 11.793067 14.933333 25.173333 23.2448 37.239466a146.2272 146.2272 0 0 0 8.533334 12.3904c2.338133 2.730667 1.501867 4.949333 0.119466 7.099734-8.738133 13.533867-29.696 19.473067-44.168533 12.714666-2.133333-0.989867-4.539733-1.570133-4.6592-4.5568l0.750933-0.6656c4.130133-1.570133 2.9696-5.632 4.113067-8.669866 0.546133-0.699733-1.0752-1.024-0.2048-0.6144 0.1024 0 0 0.187733-0.187733 0.529066-1.3824 3.669333-4.352 4.164267-7.68 3.720534s-4.471467-2.781867-5.768534-5.632c-2.952533-6.5024-4.4032-13.7728-9.3184-19.336534a8.2432 8.2432 0 0 1-1.860266-3.8912c1.3312 5.597867 3.601067 10.410667-0.802134 14.7456a2.2016 2.2016 0 0 1-2.269866-1.792c-0.904533-10.24-1.3824-20.48 3.242666-30.276266 1.28-0.170667 1.877333 0.6656 2.4064 1.5872 1.006933 2.542933 2.9184 4.215467 5.5808 3.413333 5.819733-1.809067 8.3968 2.013867 11.946667 5.4272 4.573867 4.369067 9.796267 7.901867 9.762133 16.503467 0.546133-3.413333-1.006933-5.444267 0-7.543467a14.762667 14.762667 0 0 1 3.857067-5.9904c2.235733-1.706667 4.778667-2.56 7.389867-1.109333a4.744533 4.744533 0 0 1 1.8432 6.365866c-2.747733 5.973333-1.3824 11.093333 1.911466 16.298667 2.218667 3.498667 1.1264 6.826667-1.416533 9.9328-1.9456 2.372267-4.9664 3.805867-6.161067 6.826667 6.7072 1.2288 20.1728-7.492267 21.111467-13.653334a9.7792 9.7792 0 0 0-2.082133-6.724266c-7.0656-11.451733-14.830933-22.442667-21.418667-34.133334-4.778667-8.533333-11.5712-14.062933-22.186667-12.373333-1.041067-0.4608-1.8432-1.092267-1.348266-2.423467z" fill="#0047B9" p-id="2555"></path><path d="M745.898667 866.235733c-4.5568 4.6592-10.24 7.611733-16.64 10.325334 3.413333-3.310933 1.911467-6.024533 0.119466-8.891734-5.614933-8.977067-11.093333-18.0224-16.64-27.0336-1.2288-2.030933-2.594133-5.034667-5.2736-3.549866-3.413333 1.8944 0.4608 3.874133 0.887467 5.853866 0.546133 2.440533 3.1744 4.181333 2.542933 7.048534-1.604267 0.290133-2.321067-0.785067-3.089066-1.604267-3.652267-3.84-8.123733-6.075733-12.885334-3.106133s-4.778667 8.1408-3.652266 13.056c1.877333 8.1408 6.212267 15.086933 11.349333 21.504 2.474667 3.1232 5.6832 5.3248 10.001067 4.369066 4.693333-1.024 6.519467-4.4544 7.304533-8.823466 0.238933-1.262933 0-3.003733 2.286933-3.652267 1.706667 5.666133 0 10.24-3.9936 14.062933-4.590933 4.488533-10.24 5.290667-16.093866 3.413334-14.4384-4.727467-23.1936-26.0608-16.349867-39.714134a13.8752 13.8752 0 0 1 12.561067-8.2944c2.9184-0.1024 5.666133 0.3584 5.8368-4.164266 0-1.3824 2.986667-2.833067 4.778666-3.959467 9.3696-5.888 18.8928-11.554133 27.306667-18.773333 3.9424-3.413333 6.7072-3.857067 9.2672 1.3312a59.323733 59.323733 0 0 0 4.778667 6.946133c-3.6864 0.477867-4.932267-2.8672-7.355734-3.959467-3.6352-1.621333-6.587733-0.4608-9.216 1.9456-3.310933 3.003733 0.631467 4.488533 1.706667 6.417067a60.945067 60.945067 0 0 0 4.9664 7.099733c0.785067 1.041067 1.297067 3.003733 3.140267 2.1504 1.4848-0.699733 1.4336-2.525867 1.109333-3.857066a26.8288 26.8288 0 0 1-1.399467-8.840534l13.653334 19.3536c-1.314133 0.119467-1.826133 0.341333-2.0992 0.170667-2.696533-1.706667-5.495467-6.126933-8.533334-3.242667-2.4064 2.3552 1.792 5.376 3.584 7.5264 2.269867 2.7136 2.935467 9.079467 8.379734 6.4512s7.0656-7.6288 5.12-13.550933c-0.443733-1.3312-0.648533-2.730667-1.211734-5.12 3.822933 3.669333 5.12 7.748267 7.3728 11.1616a2.577067 2.577067 0 0 1-0.836266 4.181333c-7.765333 5.12-14.199467 12.219733-22.903467 16.042667a23.893333 23.893333 0 0 0-5.4784-12.919467c-5.12-6.638933-9.693867-13.653333-14.762667-20.3264-0.955733-1.262933-2.184533-3.1232-4.027733-1.604266-1.262933 1.041067-0.477867 2.7648 0.3072 3.959466 5.751467 8.823467 10.752 18.107733 16.6912 26.8288 1.911467 2.679467 5.085867 2.218667 7.389867 3.7888z" fill="#0148BA" p-id="2556"></path><path d="M366.045867 901.12c12.714667-11.946667 21.572267-26.692267 33.604266-40.0384 0 6.5536 0.170667 12.3392 0 18.107733-0.3584 9.147733-1.058133 18.2784-1.4336 27.426134-0.119467 2.56-0.375467 5.4784 3.413334 6.109866s4.437333-2.218667 5.12-4.676266q4.5568-15.9232 8.823466-31.931734c0.785067-2.935467 1.348267-6.007467-2.4576-8.0896a66.0992 66.0992 0 0 1 20.155734 5.700267 7.748267 7.748267 0 0 1 1.2288 0.768c6.980267 5.12 8.823467 16.725333 4.539733 28.706133-3.7888 10.581333-10.9568 16.7936-19.882667 15.530667a108.6464 108.6464 0 0 1-35.618133-10.9568c7.918933-1.245867 6.2464-6.656 5.956267-10.973867-0.1536-2.4576-9.403733-5.802667-11.127467-4.061866-3.089067 3.157333-7.0656 6.587733-1.006933 12.049066-5.000533-0.494933-8.192-2.474667-11.3152-3.669333z" fill="#0147B9" p-id="2557"></path><path d="M818.824533 748.8c-5.376-1.0752-10.24-3.2768-14.677333 2.065067-1.809067 2.184533-2.679467 3.6352 0.341333 5.666133 3.7376 2.5088 7.1168 5.563733 10.752 8.533333 3.413333-3.413333-0.136533-5.6832-1.3312-9.403733 7.765333 2.935467 12.1856 8.328533 19.1488 13.653333-6.0928-0.546133-10.752-6.178133-13.431466-1.3312-1.467733 2.6624 4.744533 5.12 7.6288 7.3216 2.082133 1.621333 4.113067 5.819733 7.7824 2.986667a9.796267 9.796267 0 0 0 3.2256-11.1104 46.6944 46.6944 0 0 0-3.822934-7.611733c0.9728 0.238933 1.518933 0.2048 1.809067 0.4608 10.615467 8.891733 10.632533 8.9088 2.474667 19.848533-3.549867 4.7616-7.202133 9.472-11.502934 14.2848 2.338133-6.007467-1.706667-8.448-5.239466-11.281067-7.389867-5.802667-14.574933-11.844267-21.947734-17.681066-1.706667-1.3824-3.259733-3.822933-6.485333-2.3552 1.518933 4.539733 6.485333 6.2464 8.686933 10.752-3.7888-0.631467-6.587733-3.157333-10.325333-3.054934-6.673067 0.2048-9.898667 3.413333-9.250133 9.8304 0.836267 8.533333 16.213333 24.1152 24.746666 25.1904 5.307733 0.682667 9.6256-2.935467 10.103467-8.840533a63.761067 63.761067 0 0 0-0.6144-8.891733 10.4448 10.4448 0 0 1 3.703467 11.946666c-1.706667 6.212267-5.461333 10.5984-12.1344 11.946667-12.731733 2.645333-28.2112-9.506133-30.976-24.3712-1.826133-9.745067 1.006933-15.7184 10.001066-19.797333 4.488533-2.030933 3.208533-7.355733 7.0656-10.24s6.690133-8.0896 9.659734-12.475734c2.6112-3.857067 5.12-5.256533 8.686933-1.109333a49.954133 49.954133 0 0 0 5.922133 5.0688z" fill="#0148BA" p-id="2558"></path><path d="M538.624 203.093333c0-11.52-0.136533-23.04 0-34.542933 0.085333-4.795733-1.1264-5.9392-5.12-3.003733a11.707733 11.707733 0 0 1-2.56 1.314133c-2.7136 1.092267-5.12 5.819733-7.748267 3.293867-3.140267-3.054933-1.297067-8.209067 0.9728-11.246934 3.976533-5.3248 6.980267-10.24 3.84-17.066666a3.2256 3.2256 0 0 1 1.0752-3.8912c3.293867-2.833067 3.413333-6.0416 1.245867-9.659734a3.208533 3.208533 0 0 1 0.3584-4.027733 3.106133 3.106133 0 0 1 3.959467 0.2048c2.7136 2.116267 4.215467 1.928533 5.905066-1.5872 1.365333-2.850133 5.6832-6.178133 7.714134-4.693333 2.884267 2.133333 7.133867 5.12 5.597866 10.530133-1.3824 4.829867 0 10.0352-1.809066 14.916267-0.938667 2.577067 0.750933 4.625067 2.542933 6.314666 3.9936 3.771733 3.7376 7.099733-1.245867 9.454934a5.922133 5.922133 0 0 0-3.805866 5.666133c-0.426667 13.4144-7.560533 25.070933-10.922667 38.024533zM850.858667 343.261867c3.857067-5.290667 12.151467-6.826667 8.1408-15.9744-1.109333-2.56 0.529067-5.597867 3.925333-6.587734 3.037867-0.904533 4.983467-0.1536 6.007467 3.106134 0.631467 2.013867 2.184533 3.720533 2.850133 5.7344 1.058133 3.208533 1.1264 6.7072-3.1232 7.338666-5.12 0.785067-7.150933 4.130133-8.430933 8.533334-1.1264 3.874133-4.266667 5.819733-7.6288 7.0144-6.3488 2.269867-9.045333-0.785067-8.533334-11.264-8.772267 13.653333-23.330133 12.987733-34.935466 18.517333a3.515733 3.515733 0 0 1-5.000534-1.416533c-1.109333-2.082133-2.816-4.1472-1.245866-6.673067 4.130133-6.570667 5.870933-15.069867 16.605866-15.445333 5.444267-0.2048 10.9056-3.413333 16.64-3.771734 11.298133-0.904533 11.349333-0.802133 14.728534 10.888534z" fill="#0147B9" p-id="2559"></path><path d="M500.053333 159.1808c3.037867 1.262933-1.4848 6.826667 3.584 6.075733 4.2496-0.648533 4.010667-4.9152 4.266667-8.192 0.290133-3.771733-2.0992-5.000533-5.5296-4.864a77.141333 77.141333 0 0 1-8.6528 0.170667c-2.116267-0.136533-4.437333 4.266667-5.853867 0.4608A7.953067 7.953067 0 0 1 489.813333 144.896c5.12-5.4272 9.745067-11.246933 14.677334-16.810667 3.0208-3.413333 6.519467-6.4 6.980266-11.451733 0.136533-1.706667 1.911467-3.754667 3.328-2.986667a24.797867 24.797867 0 0 1 6.314667 5.802667c1.1264 1.297067 0.3584 2.269867-1.262933 3.208533-9.8304 5.649067-14.4384 16.162133-23.415467 24.405334 7.099733-0.1024 12.7488 1.809067 16.008533-6.126934 1.911467-4.642133 5.973333 0.221867 8.533334 1.3312 2.9696 1.314133 0.682667 3.566933-0.938667 4.983467-2.321067 2.030933-5.12 3.6352-5.290667 7.509333 2.304 0.597333 2.8672-2.167467 4.7616-2.321066a2.935467 2.935467 0 0 1 0 4.283733c-6.331733 6.2464-4.573867 13.653333-2.901333 20.8896 0.6144 2.679467 1.450667 5.853867-2.082133 6.4512-3.054933 0.529067-5.0176-1.706667-5.922134-5.034667-2.372267-8.328533-3.669333-8.686933-9.8304-2.6112-1.706667 1.706667-3.2768 3.822933-5.956266 2.833067s-1.262933-3.7376-1.518934-5.717333c-1.1264-7.338667 3.447467-11.178667 8.7552-14.353067z" fill="#0148BA" p-id="2560"></path><path d="M574.958933 900.539733c-0.085333-14.1824 6.9632-21.947733 19.182934-21.572266a13.277867 13.277867 0 0 1 10.4448 5.597866c8.260267 10.6496 10.752 22.459733 5.358933 35.1232-4.744533 11.127467-17.681067 13.346133-26.146133 4.590934-6.3488-6.5536-8.772267-14.762667-8.840534-23.739734zM688.4864 237.755733c3.208533 3.413333 5.870933 6.331733 8.7552 9.096534a16.042667 16.042667 0 0 0 7.918933 4.7104 4.693333 4.693333 0 0 0 5.5296-2.269867c1.399467-2.440533-0.597333-3.515733-2.030933-4.676267-5.393067-4.369067-10.8032-8.738133-16.298667-12.987733-1.792-1.399467-3.515733-2.679467-2.8672-5.256533 0.477867-1.962667 2.338133-2.4064 3.8912-2.679467 2.935467-0.512 2.696533 1.979733 3.805867 3.754667a40.738133 40.738133 0 0 0 16.5888 14.250666c2.372267 1.2288 4.471467-0.887467 3.140267-2.645333-3.7376-4.949333 0.938667-5.717333 3.208533-7.355733 5.461333-3.959467 5.7344-6.4512 0.1024-10.3424-2.0992-1.450667-4.727467-2.4576-3.054933-5.2736 1.245867-2.0992 3.925333-2.372267 6.434133-1.570134 3.413333 1.109333 6.826667 2.0992 9.472 4.9152 4.1984 4.471467 4.130133 10.069333-1.450667 11.349334-8.823467 2.048-6.7072 10.0864-10.069333 15.0016-0.750933 1.109333 0.119467 2.474667 1.621333 2.423466 6.485333-0.187733 5.853867 6.229333 9.216 9.7792-9.1136-6.382933-17.5104-4.573867-26.9312-1.3312-6.9632 2.4064-17.2544-9.6256-16.981333-18.8928z" fill="#0248BA" p-id="2561"></path><path d="M772.608 193.8432c5.2736 3.413333 3.549867 8.362667 2.816 12.544-0.529067 3.0208-3.669333 3.618133-6.417067 2.440533a21.316267 21.316267 0 0 0-6.826666-1.706666c-4.898133-0.392533-7.5264 0.2048-6.331734 6.434133 0.989867 5.12-2.372267 9.728-5.632 13.5168a6.6048 6.6048 0 0 1-9.079466 0.853333c-0.597333-0.392533-0.8192-1.5872-0.9216-2.440533a1.365333 1.365333 0 0 1 1.706666-1.706667c7.6288 1.5872 7.099733-4.437333 8.2944-8.840533 1.4848-5.4784-1.706667-8.072533-6.178133-9.642667-7.492267-2.628267-14.779733-3.652267-21.725867 1.706667a34.952533 34.952533 0 0 1-7.7312 3.652267c-1.9456 0.8704-4.232533 2.5088-5.9904 0.768-2.048-2.013867-0.426667-4.522667 0.785067-6.536534a93.969067 93.969067 0 0 1 6.3488-9.5744 7.424 7.424 0 0 1 11.264 0.477867c1.058133 1.5872 2.013867 1.501867 3.413333 1.706667 8.533333 0.9216 17.152 1.706667 25.7024 2.8672 6.775467 1.024 12.936533 0.648533 16.503467-6.519467z" fill="#0248BA" p-id="2562"></path><path d="M290.389333 835.857067c-0.238933 0.955733-0.221867 1.416533-0.4608 1.706666-9.659733 10.820267-9.659733 10.820267-20.48 1.28-3.925333-3.413333-7.8848-6.912-12.1344-10.6496 9.079467-1.024 32.631467-29.8496 30.293334-38.2976 7.5264 6.570667 14.1312 12.373333 20.7872 18.090667 1.9456 1.706667 0.938667 2.986667-0.273067 4.181333-2.133333 2.116267-3.140267 5.393067-7.133867 6.673067 2.4064-5.802667 3.584-11.076267-2.338133-15.0016-1.706667-1.143467-2.9696-2.321067-4.727467 0-3.1232 4.164267-6.485333 8.1408-9.8816 12.356267 5.973333 2.9696 8.311467-2.218667 12.885334-3.1232L281.002667 832.853333c-0.477867-5.290667 5.870933-8.823467 0.938666-13.448533-2.696533 3.1744-5.4272 6.178133-7.8848 9.386667-1.604267 2.116267-5.0176 4.1472-2.4064 7.338666s5.973333 5.12 10.24 3.84a73.028267 73.028267 0 0 0 8.4992-4.113066z" fill="#0249BA" p-id="2563"></path><path d="M854.6304 372.718933c-6.109867 0-3.157333 3.157333-0.989867 4.1472 3.413333 1.570133 5.307733 4.898133 8.533334 6.519467 2.269867 1.1264 3.310933 2.8672 1.809066 5.239467a3.2256 3.2256 0 0 1-5.034666 0.887466c-3.413333-2.935467-5.888-1.553067-8.669867 1.058134s-6.826667 1.570133-10.018133 3.413333c-2.030933 1.1776-6.673067 1.348267-4.437334 4.744533 1.8432 2.781867 1.706667 8.8576 7.936 7.509334 1.4848-0.3072 3.618133-2.679467 4.881067 0.290133a4.1472 4.1472 0 0 1-1.706667 5.12 4.7616 4.7616 0 0 0-2.4576 4.7616c0.136533 1.706667 0.170667 3.515733-1.9968 4.096-2.577067 0.6656-3.5328-1.3312-4.130133-3.089067-1.9968-5.9392-4.215467-11.52-10.154667-14.9504-2.7648-1.5872-1.314133-4.078933 0.256-6.161066 3.976533-5.290667 9.045333-8.328533 16.008534-7.850667-5.512533-2.4064-11.400533-3.6352-15.633067-8.174933-2.030933-2.167467-2.4064-3.549867 0.938667-4.369067 1.860267-0.4608 3.720533-1.536 5.546666-1.450667 4.795733 0.238933 9.386667 1.4336 13.124267-3.413333 1.792-2.338133 4.778667 0.9728 7.338667 0.853333 0.034133 0.648533-0.324267 0.989867-1.143467 0.8192z" fill="#0248BA" p-id="2564"></path><path d="M780.936533 810.376533c-6.263467-6.126933-8.004267-17.152-19.217066-17.578666 1.962667-2.901333 4.881067-5.12 9.2672-8.533334-2.816 6.570667 0.768 9.642667 3.669333 13.038934a294.058667 294.058667 0 0 1 22.510933 29.013333l-39.253333-13.3632c8.362667 8.362667 11.946667 21.5552 24.968533 25.156267a35.84 35.84 0 0 1-8.3968 7.2192c1.041067-9.301333-21.9648-36.113067-30.378666-36.1472 5.393067-8.174933 7.287467-8.8576 15.940266-5.870934 6.929067 2.235733 13.909333 4.676267 20.8896 7.0656zM835.618133 754.722133c4.4544-0.238933 8.106667 0.9728 11.946667 0.682667 4.283733-0.324267 8.106667-2.048 7.543467-6.826667s-4.5056-7.424-9.5232-6.4512c-3.498667 0.682667-6.826667 2.4576-10.24 3.515734-9.284267 2.8672-17.066667 0-21.128534-7.5264-3.140267-5.853867-2.167467-11.042133 3.413334-14.318934 3.0208-1.706667 3.976533-3.259733 1.536-7.406933 6.1952 3.413333 11.008 5.905067 15.598933 10.496a83.336533 83.336533 0 0 0-10.513067-1.314133c-3.9424 0-7.697067 1.706667-7.1168 6.2464 0.648533 4.9152 4.573867 6.621867 9.250134 5.3248 3.2256-0.887467 6.212267-2.594133 9.403733-3.618134 8.106667-2.6112 16.042667-0.1024 20.48 6.263467s3.7888 13.312-2.833067 17.408c-2.816 1.706667-2.781867 6.826667-4.898133 5.973333-4.625067-1.8944-8.635733-5.5296-12.919467-8.448zM276.8384 799.863467c0.273067-5.393067 3.208533-8.2432 2.935467-11.946667-0.238933-3.413333-0.938667-6.587733-4.9152-6.826667-3.584-0.187733-5.768533 2.3552-6.434134 5.6832a25.6 25.6 0 0 0 0.836267 10.717867 18.176 18.176 0 0 1-7.0144 19.677867 12.1856 12.1856 0 0 1-19.234133-4.334934c-0.836267-1.706667-0.529067-4.1472-3.7888-4.471466-2.935467-0.290133-0.5632-2.065067 0.119466-2.7648 3.328-3.413333 6.826667-6.690133 11.707734-11.451734a86.237867 86.237867 0 0 0-4.4544 10.24c-1.058133 3.7376-1.570133 7.7312 2.013866 10.632534a5.290667 5.290667 0 0 0 6.126934 0.392533c3.959467-2.235733 4.334933-5.956267 3.9936-10.018133a121.992533 121.992533 0 0 1-0.785067-13.653334 16.0256 16.0256 0 0 1 12.936533-14.4896 9.7792 9.7792 0 0 1 11.264 5.768534c0.836267 1.706667-0.768 5.393067 3.7376 4.7104 1.9456-0.290133 0.836267 1.518933 0.136534 2.286933-2.7136 2.9184-5.4272 5.8368-9.181867 9.847467zM635.050667 904.772267a20.821333 20.821333 0 0 0-2.5088-4.130134c-1.467733-1.553067-3.515733-3.413333-5.649067-2.184533-2.474667 1.348267 0 3.413333 0.324267 5.0176a54.613333 54.613333 0 0 0 2.082133 8.379733c1.006933 3.0208 1.006933 7.338667 7.099733 5.563734-5.7856 3.7888-11.502933 4.625067-17.681066 6.5024 4.727467-7.168-4.727467-42.922667-12.407467-46.660267 8.977067-2.5088 17.271467-4.625067 25.412267-7.236267 2.628267-0.836267 2.8672 0.477867 3.310933 2.082134a69.768533 69.768533 0 0 1 2.286933 10.8032c-3.703467-5.444267-7.458133-9.728-14.882133-6.7072-2.7136 1.1264-2.440533 2.2016-1.860267 4.1984 0.9216 3.242667 1.5872 6.5536 2.628267 9.745066 0.4608 1.399467 0.273067 3.720533 2.577067 3.6864s2.696533-2.338133 3.549866-4.027733c1.006933-1.979733-0.802133-4.334933 1.570134-6.929067 1.9456 7.5264 3.754667 14.455467 5.546666 21.4016z" fill="#0349BA" p-id="2565"></path><path d="M666.3168 891.323733c3.293867 1.962667 4.846933 5.461333 8.260267 7.082667s7.645867 3.2768 10.24-0.8704c2.935467-4.676267 0.221867-8.533333-4.027734-10.666667-3.413333-1.706667-7.3728-1.9968-11.008-3.208533-7.901867-2.645333-12.117333-8.2432-12.288-15.957333-0.187733-8.2944 3.259733-11.946667 11.502934-12.305067 6.826667-0.273067 7.68 0.802133 10.018133 12.219733-2.133333-2.3552-3.669333-4.317867-5.4784-5.9904-2.6112-2.423467-5.700267-3.754667-9.250133-2.184533-2.372267 1.041067-2.474667 3.293867-2.3552 5.563733 0.2048 3.805867 2.833067 5.410133 5.973333 6.3488s6.570667 1.4336 9.813333 2.372267c7.901867 2.269867 11.793067 8.004267 12.765867 15.803733s-3.413333 13.073067-11.025067 14.1824c-4.027733 0.597333-4.027733 0.597333-6.826666 3.310934-3.293867-4.778667-4.7104-10.257067-6.314667-15.701334z" fill="#044ABA" p-id="2566"></path><path d="M384 855.569067l-7.304533 15.36v-9.762134a9.147733 9.147733 0 0 0-5.444267-8.635733c-3.549867-1.706667-6.638933-0.238933-9.216 2.133333a42.120533 42.120533 0 0 0-13.482667 27.170134c-0.989867 9.284267 5.888 12.1344 17.3056 7.7312-2.235733 5.410133-8.6528 7.492267-15.035733 4.846933a16.418133 16.418133 0 0 1-10.24-13.738667c-1.706667-11.861333 5.495467-25.975467 16.008533-31.607466 8.0384-4.317867 14.848-3.191467 20.360534 3.959466 2.082133 2.7136 3.6352 3.9936 7.048533 2.542934z" fill="#0248BA" p-id="2567"></path><path d="M310.152533 869.2224c-3.515733-2.269867-6.7072-4.3008-9.813333-6.280533 16.0768-8.123733 26.641067-22.818133 41.4208-32.768-2.9184 17.7664-9.8304 34.269867-10.8544 52.667733l-14.762667-9.659733c5.410133-0.1024 9.6768-5.2224 8.2944-9.181867a9.745067 9.745067 0 0 0-9.489066-6.178133c-3.6864-0.017067-6.0416 5.973333-4.795734 11.400533zM854.6304 372.718933l1.1776-0.9728c2.440533 0.119467 4.027733-0.4096 4.2496-3.413333 0.256-3.413333-1.979733-2.304-3.6352-2.679467-4.590933-1.041067-5.290667-3.976533-1.911467-7.5776 3.805867-4.027733 16.1792-6.280533 21.589334-4.027733 3.106133 1.297067 1.399467 2.7648 0.341333 4.317867-1.467733 2.133333-4.5056 0.887467-6.724267 2.9696 7.082667 4.676267 14.0288 8.789333 20.224 13.9776 4.420267 3.703467 4.0448 8.618667-1.314133 10.8544-4.027733 1.706667-7.9872 2.2528-12.305067-0.1536-7.424-4.164267-15.428267-7.287467-21.691733-13.294934z" fill="#0349BA" p-id="2568"></path><path d="M291.362133 229.512533l1.416534 0.682667c5.9392 9.233067 10.24 19.319467 15.4624 29.013333-2.1504-5.819733-5.632-10.973867-8.362667-16.520533-0.8704-1.706667-2.986667-3.413333-1.553067-5.853867a2.030933 2.030933 0 0 1 2.6112 0.170667c4.232533 5.12 10.9568 7.765333 13.653334 14.336v-0.170667c-1.9968 0.426667-2.5088 1.1264-1.706667 3.413334 1.518933 4.539733 2.269867 9.3184 3.549867 13.943466 0.733867 2.696533 1.570133 5.888-1.314134 7.031467s-4.795733-1.877333-6.024533-4.1472c-5.12-9.5232-10.0352-19.114667-14.916267-28.740267-3.003733-5.905067-5.768533-11.946667-8.686933-18.005333 4.4032-0.8192 3.447467 3.874133 5.870933 4.846933z" fill="#054BBB" p-id="2569"></path><path d="M743.185067 168.567467c-0.221867 4.932267-0.3072 9.3696-0.6656 13.789866a6.075733 6.075733 0 0 1-5.3248 5.853867c-1.8944 0.3584-4.113067 0.290133-5.239467-1.4848a7.2704 7.2704 0 0 1 0-8.0896c2.594133-4.164267 5.12-8.4992 11.229867-10.069333z" fill="#0449BA" p-id="2570"></path><path d="M899.2768 360.618667a6.024533 6.024533 0 0 1-3.208533 5.410133c-2.065067 1.262933-3.566933-0.290133-5.12-1.314133s-3.003733-2.269867-4.522667-3.413334c-2.286933-1.706667-1.621333-3.157333 0.341333-4.4032a15.0528 15.0528 0 0 1 3.140267-1.314133c2.884267-1.006933 2.218667-7.560533 5.717333-5.341867 2.440533 1.570133 2.525867 6.792533 3.652267 10.376534z" fill="#0D50BD" p-id="2571"></path><path d="M770.850133 194.4576c-5.870933 0.853333-10.717867-0.324267-15.36 1.416533-2.628267 0.989867-3.413333-0.597333-3.413333-2.8672-0.238933-4.096-0.750933-8.533333 3.976533-10.427733 3.293867-1.314133 2.1504 2.013867 2.645334 3.413333 1.7408 5.4272 7.697067 4.829867 12.151466 8.465067z" fill="#1153BE" p-id="2572"></path><path d="M295.765333 200.6528l-1.160533-1.416533a38.263467 38.263467 0 0 1 11.178667-17.595734l1.518933 1.553067a29.184 29.184 0 0 1-11.537067 17.4592z" fill="#2C66C5" p-id="2573"></path><path d="M180.258133 369.834667c-7.2192-1.4336-6.5024-6.024533-5.8368-11.246934 4.471467 2.7648 5.7856 6.382933 5.8368 11.246934z" fill="#F0F4FA" p-id="2574"></path><path d="M830.907733 551.253333c-6.109867 114.346667-62.6176 214.1696-182.613333 271.957334-115.131733 55.432533-256.1536 26.9312-344.064-66.218667C246.954667 696.32 215.790933 624.093867 215.688533 541.013333c-0.1536-130.218667 56.32-230.075733 172.561067-290.6112 140.936533-73.386667 313.838933-20.48 396.714667 117.9648 30.6688 51.217067 45.482667 106.8544 45.943466 182.8864z" fill="#FEFEFE" p-id="2575"></path><path d="M198.587733 748.9536a6.4512 6.4512 0 0 1-5.12-4.1472c-0.853333-2.56-0.648533-4.522667 2.082134-6.0416 10.0352-5.632 19.950933-11.485867 29.952-17.2032 1.553067-0.887467 3.413333-2.645333 4.983466-0.375467a4.7104 4.7104 0 0 1-0.3584 6.075734 295.0656 295.0656 0 0 1-30.6176 21.469866 3.566933 3.566933 0 0 1-0.9216 0.221867zM220.16 705.809067c2.013867 0 2.850133 1.536 3.874133 2.816 1.621333 2.0992-0.273067 3.242667-1.501866 3.976533-10.478933 6.212267-21.0432 12.270933-31.556267 18.414933-3.84 2.2528-5.256533-1.194667-6.741333-3.191466a3.6864 3.6864 0 0 1 1.5872-5.956267q16.4864-7.8336 33.006933-15.616a11.0592 11.0592 0 0 1 1.3312-0.443733z" fill="#FBFCFD" p-id="2576"></path><path d="M295.765333 200.6528q5.7856-8.721067 11.537067-17.4592c9.250133-4.1472 15.701333 1.245867 20.189867 7.645867 9.591467 13.653333 18.0736 28.1088 26.9824 42.257066a7.133867 7.133867 0 0 1 0.4608 6.263467c-2.013867 5.512533-17.527467 15.086933-23.552 14.711467-1.1264 0-2.645333-0.2048-3.2256-0.9216-1.1264-1.399467 0-3.037867 1.109333-3.703467 9.984-6.007467 12.407467-13.141333 4.4032-22.801067-1.518933-1.826133 0-4.898133 1.706667-7.2192 1.604267-2.048 2.696533-5.410133 0-7.0144a5.632 5.632 0 0 0-7.543467 2.372267c-1.621333 2.645333-4.010667 5.12-2.082133 9.079467 1.348267 2.7648 0.443733 5.666133-4.471467 7.287466 4.9152-10.3936-1.109333-15.36-8.226133-20.1216-4.164267-2.798933-7.406933-4.898133-12.1856-4.522666s-5.870933-1.706667-5.102934-5.853867z" fill="#FDFDFE" p-id="2577"></path><path d="M314.5216 251.2896l-15.854933-14.4896c-4.608-3.652267-5.290667-11.144533-1.553067-17.2032 0.853333 0.256 2.3552 0.324267 2.474667 0.785067 1.706667 6.229333 5.9392 11.4176 7.458133 17.5616 0.750933 3.003733 0.785067 5.905067 4.2496 6.263466 3.003733 0.3072 6.417067 0.2048 6.263467-4.608 0-2.013867 1.3312-4.130133 3.413333-3.566933s1.245867 2.884267 0.682667 4.334933a24.029867 24.029867 0 0 0-1.245867 12.0832z" fill="#EFF3FA" p-id="2578"></path><path d="M297.1648 219.5968a17.3568 17.3568 0 0 0 1.553067 17.2032c1.399467 4.864 4.283733 8.874667 7.1168 13.0048a23.7568 23.7568 0 0 1 4.266666 16.196267 349.866667 349.866667 0 0 1-17.322666-35.84c4.846933-5.819733-0.221867-11.946667 0.597333-18.005334 4.181333 1.1776-0.221867 6.382933 3.7888 7.441067z" fill="#E2EAF6" p-id="2579"></path><path d="M315.067733 221.047467c3.259733 2.542933 3.959467 4.7616 2.5088 7.458133-0.529067 0.989867-1.501867 1.024-2.4064 0.375467-3.140267-2.321067-0.3072-4.625067-0.1024-7.8336z" fill="#C7D6EF" p-id="2580"></path><path d="M329.762133 233.813333c2.679467 3.805867 2.542933 6.417067-1.553066 8.7552-1.467733-3.2256-0.392533-5.632 1.553066-8.7552z" fill="#C1D2ED" p-id="2581"></path><path d="M745.898667 866.235733c-4.420267 1.706667-7.287467 0.6656-9.745067-3.771733-5.12-9.233067-10.871467-18.090667-16.315733-27.136-1.211733-2.013867-2.952533-4.386133 0-6.212267 2.594133-1.621333 4.778667-0.750933 6.638933 1.9456 6.2976 9.0624 12.680533 18.056533 19.285333 26.897067 2.321067 3.072 1.911467 5.614933 0.085334 8.533333zM432.896 885.998933c-1.1264 8.379733-2.6112 16.674133-7.048533 24.081067-1.365333 2.269867-2.833067 4.7616-5.649067 5.2736-3.310933 0.6144-6.485333 0.853333-4.898133-4.573867 3.054933-10.359467 5.597867-20.855467 8.533333-31.232 0.494933-1.706667-0.3584-4.9664 3.089067-4.7104a5.717333 5.717333 0 0 1 4.642133 4.113067 13.8752 13.8752 0 0 1 1.3312 7.048533z" fill="#FBFCFD" p-id="2582"></path><path d="M391.150933 877.3632c-0.341333 3.413333-0.477867 6.4512-0.989866 9.403733-0.238933 1.416533 0.597333 4.010667-1.792 3.9424a9.198933 9.198933 0 0 1-5.7856-2.338133c-1.553067-1.553067 0.768-2.9184 1.706666-4.0448 2.013867-2.286933 3.1232-5.393067 6.8608-6.9632z" fill="#E0E8F6" p-id="2583"></path><path d="M539.886933 144.0768c-0.290133 10.666667-0.290133 10.666667-8.192 14.1824 1.143467-5.6832 7.0656-8.533333 7.6288-14.1824z" fill="#CDDBF1" p-id="2584"></path><path d="M539.886933 144.0768H539.306667c-1.706667-3.413333-3.259733-6.826667 1.143466-10.939733-0.2048 4.181333-0.375467 7.560533-0.5632 10.939733z" fill="#E7EDF8" p-id="2585"></path><path d="M604.0064 912.0256c-0.9216 5.649067 0.4096 12.219733-5.9904 13.294933-6.0928 1.024-8.157867-4.7616-9.7792-9.557333-2.816-8.430933-4.778667-17.066667-3.498667-26.0608 0.4608-3.413333 1.041067-6.826667 5.307734-7.5264s6.5536 2.304 8.123733 5.700267c3.652267 7.936 4.4544 16.5376 5.8368 24.149333z" fill="#FCFDFE" p-id="2586"></path><path d="M329.386667 845.602133c-1.1264 5.239467-1.706667 9.4208-3.601067 13.2608-9.0112-4.181333-8.977067-4.369067 3.601067-13.2608z" fill="#EAEFF9" p-id="2587"></path><path d="M863.573333 364.8c7.082667 4.078933 13.431467 7.560533 19.592534 11.349333 1.809067 1.1264 4.642133 2.577067 2.491733 5.5296-1.706667 2.304-3.6864 3.1232-6.6048 1.160534-6.468267-4.334933-15.394133-6.229333-15.479467-18.039467z" fill="#FAFBFD" p-id="2588"></path><path d="M223.0272 507.0848c3.9936-104.942933 64.187733-202.5472 184.644267-257.3824 101.768533-46.336 237.448533-29.832533 329.710933 69.034667 41.1648 44.100267 69.256533 94.634667 80.0768 154.180266 31.982933 175.786667-70.229333 304.452267-186.026667 350.139734-107.246933 42.222933-241.442133 23.227733-333.431466-83.8144-50.7392-59.0336-75.349333-127.317333-74.973867-232.157867z" fill="#0047B9" p-id="2589"></path><path d="M311.3984 199.492267c5.12-0.785067 9.693867-0.853333 11.332267 4.8128 0.7168 2.440533-1.024 4.625067-4.010667 4.778666-6.929067 0.375467-6.144-5.102933-7.3216-9.591466z" fill="#0E51BD" p-id="2590"></path><path d="M469.896533 649.6256c-18.193067 3.584-35.293867 6.929067-52.394666 10.325333-27.818667 5.546667-55.637333 11.076267-83.421867 16.759467a12.509867 12.509867 0 0 1-11.229867-2.696533q-26.2144-20.48-52.906666-40.277334c-3.720533-2.7648-4.625067-4.608-1.911467-8.977066 12.066133-19.421867 23.722667-39.099733 35.328-58.794667a11.4176 11.4176 0 0 1 8.2432-6.007467c28.5696-5.563733 57.122133-11.2128 86.306133-16.964266-3.413333-6.826667-9.028267-11.946667-13.653333-17.442134q-37.137067-44.373333-74.683733-88.302933a17.937067 17.937067 0 0 1-4.437334-15.616c2.679467-20.036267 4.590933-40.174933 6.638934-60.296533 1.058133-10.513067 0.887467-10.513067 11.008-10.24 20.002133 0.512 40.004267 1.3824 60.0064 1.28 6.741333 0 10.461867 2.884267 14.318933 7.543466 18.295467 22.033067 36.8128 43.912533 55.637333 66.286934 3.549867-5.2224 4.471467-10.9056 6.2464-16.128q20.053333-59.016533 39.645867-118.237867a13.533867 13.533867 0 0 1 8.174933-9.028267c20.292267-8.772267 40.448-17.902933 60.552534-27.0848 3.754667-1.706667 5.563733-1.416533 7.611733 2.594134q16.110933 31.470933 32.887467 62.532266c1.928533 3.566933 0.938667 6.365867-0.136534 9.5232q-13.1584 38.8608-26.299733 77.7216c-0.836267 2.474667-1.536 4.983467-2.7136 8.840534 12.868267-2.474667 24.7808-4.744533 36.676267-7.082667 33.757867-6.621867 67.5328-13.192533 101.239466-20.0704a8.533333 8.533333 0 0 1 7.816534 1.706667c18.3296 14.08 36.676267 28.16 55.176533 41.984 3.413333 2.594133 3.6352 4.130133 1.314133 7.8848-11.605333 18.773333-23.022933 37.751467-33.911466 57.002666-3.242667 5.717333-7.406933 7.901867-13.448534 9.0112-26.0096 4.727467-51.968 9.813333-77.943466 14.813867-1.706667 0.3072-3.242667 0.904533-5.819734 1.706667 10.069333 11.946667 19.8656 23.773867 29.713067 35.464533q30.72 36.522667 61.44 72.96a9.898667 9.898667 0 0 1 2.440533 8.533333q-4.1472 34.7648-7.68 69.614934c-0.443733 4.386133-1.8944 5.649067-6.161066 5.512533q-33.962667-1.1264-67.976534-1.706667c-3.8912 0-6.075733-1.928533-8.3456-4.6592q-27.0848-32.426667-54.3232-64.853333c-0.904533-1.092267-1.706667-2.269867-2.679466-3.5328-3.106133 3.191467-3.413333 6.673067-4.420267 9.7792q-20.804267 61.44-41.437867 122.88a12.731733 12.731733 0 0 1-7.6288 8.533333q-30.395733 13.2608-60.501333 27.118934c-4.010667 1.826133-6.058667 1.860267-8.328533-2.594134-10.4448-20.5824-21.230933-40.96-32.1024-61.3376a11.690667 11.690667 0 0 1-0.5632-10.24c8.772267-25.736533 17.3568-51.541333 25.975466-77.312 0.836267-2.4064 1.553067-4.881067 2.6624-8.430933z" fill="#FEFEFE" p-id="2591"></path><path d="M796.296533 433.8176c6.075733 12.1856 8.533333 25.4464 11.025067 38.621867 10.615467 57.514667 9.0624 114.722133-12.7488 169.284266-38.3488 95.965867-106.052267 162.4064-208.452267 184.507734-112.913067 24.354133-208.964267-9.454933-284.3136-97.962667-50.824533-59.733333-71.816533-129.706667-68.795733-207.428267 1.706667-45.704533 12.6464-88.917333 34.286933-129.314133 0.785067-1.4848 1.706667-2.833067 2.7136-4.2496 3.413333-1.8432 6.587733-3.84 7.099734-8.277333a5.802667 5.802667 0 0 1 2.9696-3.908267 14.523733 14.523733 0 0 0 6.826666-9.728c1.006933-4.829867 5.12-6.826667 8.942934-8.669867 2.6624-1.28 5.700267-0.955733 5.853866 3.328-2.286933 22.016-4.437333 44.049067-6.946133 66.030934-0.5632 5.12 0 8.925867 3.566933 13.056 27.306667 31.863467 54.1184 63.965867 81.681067 96.648533-9.216 3.413333-18.432 4.232533-27.306667 6.144-15.496533 3.310933-31.095467 6.109867-46.660266 9.1136a11.946667 11.946667 0 0 0-8.891734 6.2464c-13.806933 23.7056-27.9552 47.223467-42.222933 70.656-2.184533 3.584-2.116267 5.12 1.4336 7.8336 22.016 16.401067 43.810133 33.092267 65.570133 49.8176a9.147733 9.147733 0 0 0 8.430934 1.8944c41.198933-8.362667 82.466133-16.452267 124.347733-24.746667-1.0752 7.406933-4.010667 13.8752-6.1952 20.48q-8.772267 26.658133-17.937067 53.1456a11.52 11.52 0 0 0 0.8192 10.120534q19.456 36.642133 38.417067 73.506133c1.979733 3.874133 3.652267 4.369067 7.594667 2.577067 24.712533-11.246933 49.493333-22.186667 74.359466-33.1776a11.554133 11.554133 0 0 0 6.5536-7.850667c13.397333-40.055467 26.999467-80.042667 40.96-121.070933l31.453867 37.239466c2.474667 2.952533 5.461333 5.597867 7.355733 8.891734 8.055467 13.960533 19.8656 18.602667 35.84 18.090666 21.4016-0.682667 42.871467 0.733867 64.324267 1.416534 3.925333 0.119467 6.024533-0.4096 6.5024-5.12q4.164267-41.284267 9.1136-82.5344a11.4688 11.4688 0 0 0-2.781867-9.7792C724.736 597.7088 698.760533 566.613333 672.546133 535.893333c-4.078933-4.795733-4.352-6.024533 2.594134-7.2192 21.777067-3.7376 43.400533-8.379733 65.1264-12.458666 5.6832-1.0752 9.659733-3.1744 12.817066-8.6528 13.653333-23.552 27.835733-46.728533 41.796267-70.058667a28.586667 28.586667 0 0 0 1.5872-3.7888z" fill="#FEFEFE" p-id="2592"></path><path d="M301.636267 360.106667c-4.061867-2.781867-12.305067 0.273067-12.9536 5.2736s-2.645333 8.977067-7.4752 11.178666c-1.553067 0.7168-2.986667 1.706667-2.781867 3.720534 0.699733 6.587733-3.191467 7.594667-8.413867 7.082666 8.3968-15.104 18.6368-28.808533 29.3376-42.4448a294.2976 294.2976 0 0 1 75.963734-67.976533c47.786667-29.969067 100.283733-42.171733 156.330666-40.584533a259.310933 259.310933 0 0 1 44.885334 4.625066c-7.918933 3.584-13.9264 6.314667-19.933867 9.0112-19.285333 8.6528-38.536533 17.408-57.924267 25.838934a12.731733 12.731733 0 0 0-7.7824 8.533333c-13.499733 40.516267-27.306667 80.930133-41.1136 121.9072-5.410133-3.857067-8.669867-9.250133-12.663466-13.892267q-19.3024-22.4768-38.178134-45.329066a9.693867 9.693867 0 0 0-7.901866-3.976534c-27.306667-0.648533-54.4768-1.365333-81.698134-2.321066-4.2496-0.1536-5.12 1.570133-5.751466 5.12-0.836267 4.642133 0.2048 9.608533-1.9456 14.2336zM796.4672 433.664c-22.852267-17.2544-45.738667-34.440533-68.488533-51.831467a11.554133 11.554133 0 0 0-10.496-2.338133c-38.8096 7.936-77.653333 15.5648-116.497067 23.261867-2.0992 0.4096-4.215467 0.597333-6.365867 0.904533-1.553067-2.730667 0.426667-4.829867 1.109334-6.826667 7.168-21.691733 14.2336-43.400533 22.033066-64.853333a17.7152 17.7152 0 0 0-1.365333-16.110933c-11.946667-22.186667-23.6032-44.5952-35.345067-66.935467-1.211733-2.304-2.304-4.693333-3.874133-7.918933a221.866667 221.866667 0 0 1 50.568533 14.336c80.657067 34.286933 136.192 92.842667 167.765334 174.3872a21.8112 21.8112 0 0 1 0.785066 4.130133z" fill="#FEFEFE" p-id="2593"></path><path d="M477.508267 616.6528c5.802667-9.949867 10.4448-18.653867 15.837866-26.845867 2.8672-4.352 2.645333-6.5024-1.706666-9.6768-19.131733-14.199467-37.9904-28.791467-56.9344-43.246933-0.938667-0.7168-1.8432-1.4848-3.771734-3.0208a128.375467 128.375467 0 0 1 28.552534 0.597333c6.587733 0.8192 7.9872-1.706667 8.533333-7.68 2.474667-25.378133 5.546667-50.688 8.618667-78.062933 5.563733 10.581333 10.530133 19.285333 14.728533 28.330667 2.4576 5.290667 4.829867 6.229333 10.24 3.6864 21.333333-9.9328 42.9056-19.3536 64.375467-29.013334 1.28-0.5632 2.577067-1.0752 5.717333-2.4064-6.263467 10.666667-11.434667 19.9168-17.066667 28.859734-2.423467 3.84-2.030933 5.819733 1.706667 8.533333 18.5344 13.824 36.829867 27.938133 55.159467 42.001067 2.048 1.553067 4.608 2.6624 5.341866 4.6592-10.1376 0-20.48 0.221867-30.72-0.085334-4.693333-0.136533-6.417067 0.836267-6.929066 6.109867-2.440533 24.644267-5.5296 49.237333-8.635734 75.997867-5.461333-10.24-10.24-18.773333-14.4384-27.392-2.167467-4.4544-4.1984-4.881067-8.721066-2.781867-22.613333 10.530133-45.4656 20.5312-69.888 31.4368z" fill="#0047B9" p-id="2594"></path><path d="M615.185067 550.7584c14.216533 0.119467 25.156267 11.485867 25.105066 26.077867a25.873067 25.873067 0 0 1-26.043733 26.129066 26.180267 26.180267 0 0 1-25.6-26.709333 25.890133 25.890133 0 0 1 26.538667-25.4976zM469.418667 592.878933c0.136533 14.626133-11.281067 26.743467-25.3952 26.914134a26.5728 26.5728 0 0 1-26.2656-26.1632c0-14.404267 11.946667-26.709333 25.873066-26.5728a26.385067 26.385067 0 0 1 25.787734 25.821866zM532.48 610.1504a25.002667 25.002667 0 0 1 25.6 25.429333 25.6 25.6 0 1 1-51.0976 0.955734c-0.1024-15.069867 10.6496-26.299733 25.4976-26.385067zM513.399467 408.695467a25.719467 25.719467 0 0 1 25.429333 25.992533 25.787733 25.787733 0 1 1-51.5584 0 25.9072 25.9072 0 0 1 26.129067-25.992533zM459.434667 492.202667a26.146133 26.146133 0 0 1-26.112 26.282666c-13.653333-0.170667-25.173333-12.168533-25.275734-26.4704a26.1632 26.1632 0 0 1 26.146134-26.2656c13.806933 0.170667 25.1904 12.117333 25.2416 26.453334zM605.115733 500.360533a26.146133 26.146133 0 1 1 25.480534-26.538666 25.736533 25.736533 0 0 1-25.480534 26.538666z" fill="#0147B9" p-id="2595"></path><path d="M482.884267 482.594133c8.533333 13.653333 8.430933 13.653333 22.459733 7.253334 13.482667-6.178133 27.0336-12.1856 40.8064-18.363734 0 0.9216 0.1536 1.416533 0 1.706667-6.690133 12.782933-6.7072 12.782933 4.829867 21.6576 11.793067 9.079467 23.620267 18.1248 35.84 27.460267-0.9728 0.4608-1.518933 0.938667-2.0992 0.955733-13.5168 0.4096-13.653333 0.392533-15.121067 13.824-1.706667 14.574933-3.2256 29.166933-4.846933 43.793067-0.494933-0.136533-1.092267-0.1024-1.262934-0.375467-6.587733-10.359467-6.5536-10.24-18.158933-5.0176-13.892267 6.314667-27.8528 12.4928-41.847467 18.773333-0.273067-0.836267-0.443733-1.0752-0.375466-1.211733 5.973333-12.049067 5.956267-11.946667-5.12-20.48-12.032-9.1136-24.0128-18.2784-36.7616-28.0064 14.1312-0.426667 14.3872-0.392533 16.128-13.550933 1.979733-15.598933 3.566933-31.368533 5.5296-48.418134z" fill="#FEFEFE" p-id="2596"></path><path d="M630.357333 576.324267c0.1536 9.250133-6.382933 16.315733-15.2576 16.469333a16.145067 16.145067 0 1 1-0.768-32.273067 15.6672 15.6672 0 0 1 16.0256 15.803734zM459.281067 593.408a16.128 16.128 0 0 1-15.445334 16.503467 16.452267 16.452267 0 0 1 0-32.887467 15.854933 15.854933 0 0 1 15.445334 16.384z" fill="#FDFDFE" p-id="2597"></path><path d="M532.48 652.1344c-8.994133 0-15.616-6.826667-15.581867-16.1792a15.5136 15.5136 0 0 1 15.7696-16.0256 16.110933 16.110933 0 0 1-0.187733 32.2048z" fill="#FDFEFE" p-id="2598"></path><path d="M528.759467 434.432a16.0256 16.0256 0 0 1-15.4624 16.520533 16.2816 16.2816 0 0 1-0.529067-32.546133 15.8208 15.8208 0 0 1 15.991467 16.0256zM449.501867 492.168533a15.9232 15.9232 0 0 1-15.633067 16.2816c-8.686933 0.085333-16.247467-7.7824-16.128-16.776533a16.469333 16.469333 0 0 1 16.2304-15.940267 15.940267 15.940267 0 0 1 15.530667 16.4352zM604.859733 490.4448a15.7696 15.7696 0 0 1-15.7184-16.264533 15.36 15.36 0 0 1 15.837867-15.9744 15.957333 15.957333 0 0 1 15.957333 16.0768 16.298667 16.298667 0 0 1-16.0768 16.162133z" fill="#FDFDFE" p-id="2599"></path><path d="M521.984 564.0192c-16.196267-0.238933-29.3376-14.267733-28.8768-30.856533s14.2336-30.208 30.242133-29.7472c16.4352 0.494933 29.013333 14.011733 28.672 31.061333a29.44 29.44 0 0 1-30.037333 29.5424z" fill="#0147B9" p-id="2600"></path><path d="M542.1568 533.6064c0.085333 11.7248-8.2944 20.48-19.490133 20.48a20.036267 20.036267 0 0 1-19.7632-20.48c0.119467-10.888533 8.942933-20.155733 19.4048-20.343467 11.076267-0.1536 19.780267 8.738133 19.848533 20.343467z" fill="#FDFEFE" p-id="2601"></path></svg>